<svg width="2048" height="2048" viewBox="0 0 2048 2048" fill="none" xmlns="http://www.w3.org/2000/svg">
<path d="M400.144 1476.2L476.046 1446.34L499.062 1476.2L453.521 1579.96H413.588H324.732L296.968 1635.07C478.992 1829.47 737.11 1950 1024.5 1950C1308.94 1950 1565.57 1831 1747.28 1640.1L1717.41 1580.83H1632.6H1588.62L1543.08 1477.12L1566.1 1447.28L1642 1477.12L1741.12 1444.11L1924.71 1382.98C1987.08 1252.78 2022 1106.95 2022 952.959C2022 750.051 1961.36 561.3 1857.21 403.824C1821.01 349.095 1779.55 298.143 1733.56 251.687L1603.23 365.906C1451.32 224.507 1247.53 138 1023.52 138C801.441 138 599.24 223.02 447.753 362.255L318.236 248.871C272.095 295.112 230.469 345.857 194.077 400.39C88.5265 558.553 27 748.574 27 952.959C27 1107.56 62.204 1253.94 125.037 1384.54L306.478 1444.99L400.144 1476.2Z" fill="#D6B679"/>
<path fill-rule="evenodd" clip-rule="evenodd" d="M1023.52 158C806.645 158 609.226 241.006 461.287 376.98L448.078 389.121L319.294 276.378C279.266 318.05 242.899 363.26 210.712 411.491C107.287 566.47 47 752.648 47 952.959C47 1101.5 80.1485 1242.24 139.438 1368.25L399.579 1454.93L482.711 1422.23L522.141 1473.38L466.584 1599.96H337.051L321.161 1631.51C498.958 1816.07 747.853 1930 1024.5 1930C1298.18 1930 1545.57 1817.6 1723.03 1636.42L1705.1 1600.83H1575.56L1520 1474.3L1559.44 1423.17L1642.57 1455.85L1910.29 1366.7C1969.12 1241.08 2002 1100.89 2002 952.959C2002 754.095 1942.58 569.162 1840.52 414.857C1808.52 366.472 1772.33 321.098 1732.46 279.252L1602.83 392.853L1589.61 380.545C1441.25 242.458 1242.28 158 1023.52 158ZM447.568 335.511C601.039 200.156 802.698 118 1023.52 118C1246.28 118 1449.54 201.602 1603.5 339.082L1734.54 224.242L1747.78 237.616C1794.68 284.997 1836.96 336.966 1873.89 392.791C1980.14 553.438 2042 746.008 2042 952.959C2042 1110 2006.38 1258.78 1942.75 1391.62L1939.08 1399.27L1641.43 1498.39L1572.76 1471.39L1566.16 1479.94L1601.68 1560.83H1729.73L1771.49 1643.68L1761.77 1653.89C1576.44 1848.59 1314.64 1970 1024.5 1970C731.378 1970 468.037 1847.03 282.37 1648.75L272.823 1638.55L312.413 1559.96H440.457L475.983 1479.02L469.382 1470.45L400.71 1497.47L110.684 1400.84L107.014 1393.21C42.908 1259.97 7 1110.63 7 952.959C7 744.501 69.7657 550.635 177.441 389.288C214.562 333.664 257.018 281.906 304.079 234.744L317.313 221.481L447.568 335.511Z" fill="black"/>
<path d="M399.5 1387.35L566.5 1302.85H843L1205 1303.85H1481.5L1648.5 1388.26L1759.33 1349.92C1781.96 1306.86 1800.91 1261.57 1815.76 1214.46L1798.97 1193.35L1827.82 1172.36C1844.91 1106.04 1854 1036.51 1854 964.853C1854 952.073 1853.71 939.361 1853.14 926.722L1836.75 916.353L1851.49 899.808C1845.89 827.694 1831.06 758.168 1808.19 692.41L1794 689.853L1798.91 667.067C1780.61 619.535 1758.05 574.115 1731.71 531.273L1708.5 559.363L1653.5 594.968H1581.5L1526.5 550.838L1473 594.968L1476.44 526.41L573.932 524L577.5 594.853L524 550.853L469 594.853H397L342 559.353L318.474 530.969C290.97 575.661 267.587 623.161 248.856 672.939L252.5 689.853L242.042 691.737C218.653 758.795 203.635 829.777 198.241 903.432L209.746 916.353L196.968 924.44C196.325 937.83 196 951.304 196 964.853C196 1037.64 205.381 1108.24 222.999 1175.5L247.529 1193.35L233.249 1211.31C248.214 1259.43 267.447 1305.68 290.505 1349.61L399.5 1387.35Z" fill="#D6B679"/>
<path fill-rule="evenodd" clip-rule="evenodd" d="M233.613 1212.47C248.526 1260.18 267.633 1306.04 290.505 1349.61L399.5 1387.35L566.5 1302.85H843L1205 1303.85H1481.5L1648.5 1388.26L1759.33 1349.92C1781.74 1307.28 1800.54 1262.45 1815.33 1215.83C1815.47 1215.37 1815.62 1214.92 1815.76 1214.46L1798.97 1193.35L1827.82 1172.36C1844.91 1106.04 1854 1036.51 1854 964.853C1854 953.551 1853.77 942.301 1853.33 931.109C1853.27 929.645 1853.2 928.183 1853.14 926.722L1836.75 916.353L1851.49 899.808C1851.33 897.817 1851.17 895.828 1851 893.84C1845.08 824.055 1830.52 756.734 1808.38 692.951C1808.32 692.771 1808.26 692.59 1808.19 692.41L1794 689.853L1798.91 667.067C1798.73 666.593 1798.54 666.12 1798.36 665.647C1784.04 628.667 1767.15 592.971 1747.9 558.777C1742.68 549.497 1737.28 540.328 1731.71 531.273L1708.5 559.363L1653.5 594.968H1581.5L1526.5 550.838L1473 594.968L1476.44 526.41L573.932 524L577.5 594.853L524 550.853L469 594.853H397L342 559.353L318.474 530.969C312.907 540.015 307.509 549.176 302.284 558.447C281.88 594.654 264.118 632.548 249.26 671.867C249.125 672.224 248.991 672.582 248.856 672.939L252.5 689.853L242.042 691.737C241.996 691.87 241.949 692.003 241.903 692.136C219.09 757.65 204.266 826.906 198.598 898.738C198.475 900.301 198.356 901.866 198.241 903.432L209.746 916.353L196.968 924.44C196.913 925.583 196.86 926.727 196.81 927.871C196.272 940.131 196 952.461 196 964.853C196 1037.64 205.381 1108.24 222.999 1175.5L247.529 1193.35L233.249 1211.31C233.37 1211.69 233.491 1212.08 233.613 1212.47ZM266.728 1217.41C279.117 1254.63 294.172 1290.63 311.667 1325.19L397.301 1354.84L559.342 1272.85H843.041L1205 1273.85H1488.65L1650.7 1355.76L1738.18 1325.5C1755.25 1291.8 1770.01 1256.73 1782.23 1220.5L1756 1187.52L1801.36 1154.51C1816.15 1093.74 1824 1030.23 1824 964.853C1824 957.749 1823.91 950.668 1823.72 943.609L1790.84 922.802L1820.5 889.5C1814.98 830.482 1803.04 773.346 1785.4 718.787L1758.14 713.876L1767.68 669.585C1755.84 639.831 1742.26 610.954 1727.07 583.079L1662.36 624.968H1570.95L1526.76 589.511L1439.63 661.384L1444.9 556.326L605.485 554.084L610.876 661.146L523.739 589.481L479.523 624.853H388.159L323.063 582.837C306.841 612.578 292.457 643.461 280.06 675.333L288.363 713.876L264.816 718.118C246.699 773.976 234.566 832.541 229.179 893.066L255.657 922.802L226.339 941.355C226.113 949.16 226 956.993 226 964.853C226 1031.35 234.116 1095.91 249.398 1157.61L290.499 1187.52L266.728 1217.41Z" fill="black"/>
<path d="M1604 999.5C1604 1310.71 1344.55 1563 1024.5 1563C704.451 1563 445 1310.71 445 999.5C445 688.288 704.451 436 1024.5 436C1344.55 436 1604 688.288 1604 999.5Z" fill="#24387E"/>
<path fill-rule="evenodd" clip-rule="evenodd" d="M1024.5 1523C1323.52 1523 1564 1287.57 1564 999.5C1564 711.427 1323.52 476 1024.5 476C725.479 476 485 711.427 485 999.5C485 1287.57 725.479 1523 1024.5 1523ZM1024.5 1563C1344.55 1563 1604 1310.71 1604 999.5C1604 688.288 1344.55 436 1024.5 436C704.451 436 445 688.288 445 999.5C445 1310.71 704.451 1563 1024.5 1563Z" fill="black"/>
<path d="M1424 999.5C1424 1214.06 1245.14 1388 1024.5 1388C803.862 1388 625 1214.06 625 999.5C625 784.937 803.862 611 1024.5 611C1245.14 611 1424 784.937 1424 999.5Z" fill="white"/>
<path fill-rule="evenodd" clip-rule="evenodd" d="M1024.5 1348C1224.11 1348 1384 1190.93 1384 999.5C1384 808.074 1224.11 651 1024.5 651C824.894 651 665 808.074 665 999.5C665 1190.93 824.894 1348 1024.5 1348ZM1024.5 1388C1245.14 1388 1424 1214.06 1424 999.5C1424 784.937 1245.14 611 1024.5 611C803.862 611 625 784.937 625 999.5C625 1214.06 803.862 1388 1024.5 1388Z" fill="black"/>
<path d="M1229 999.5C1229 1112.44 1137.44 1204 1024.5 1204C911.558 1204 820 1112.44 820 999.5C820 886.558 911.558 795 1024.5 795C1137.44 795 1229 886.558 1229 999.5Z" fill="#D6B679"/>
<path fill-rule="evenodd" clip-rule="evenodd" d="M1024.5 1164C1115.35 1164 1189 1090.35 1189 999.5C1189 908.649 1115.35 835 1024.5 835C933.649 835 860 908.649 860 999.5C860 1090.35 933.649 1164 1024.5 1164ZM1024.5 1204C1137.44 1204 1229 1112.44 1229 999.5C1229 886.558 1137.44 795 1024.5 795C911.558 795 820 886.558 820 999.5C820 1112.44 911.558 1204 1024.5 1204Z" fill="black"/>
<path d="M677.692 695.245L671.769 676.772L797.914 577.204L1612 1439.54C1610.64 1501.18 1542.24 1568.34 1496.9 1582.7L677.692 695.245Z" fill="#D6B679"/>
<path fill-rule="evenodd" clip-rule="evenodd" d="M795.442 611.004L702.021 684.743L1503.29 1552.77C1518.38 1544.61 1536.29 1530.54 1552.1 1512.41C1570.32 1491.54 1582.7 1468.79 1586.09 1448.51L795.442 611.004ZM1612 1439.54L797.914 577.204L671.769 676.772L677.692 695.245L1496.9 1582.7C1542.24 1568.34 1610.64 1501.18 1612 1439.54Z" fill="black"/>
<path d="M483.911 599.046C524.841 518.948 564.567 492.286 629.337 420.432L837.658 417L849.17 595.409C695.318 705.902 611.395 782.242 524.377 1025.04L482.303 1043.56L446.891 1007.49C444.085 820.533 411.034 741.665 483.911 599.046Z" fill="#B40000"/>
<path fill-rule="evenodd" clip-rule="evenodd" d="M597.765 490.26C560.181 528.891 534.174 555.624 506.173 610.421C471.662 677.959 462.486 729.451 462.019 786.845C461.782 815.984 463.79 846.611 466.137 882.415L466.19 883.218C468.377 916.576 470.803 953.927 471.708 997.082L488.042 1013.72L504.508 1006.47C547.368 889.04 590.317 809.209 642.263 744.901C692.975 682.122 751.334 635.339 823.331 583.217L814.244 442.389L640.564 445.25C624.611 462.666 610.521 477.148 597.765 490.26ZM629.337 420.432C611.754 439.938 596.016 456.114 581.599 470.933C542.909 510.7 513.729 540.692 483.911 599.046C429.487 705.553 434.139 776.506 441.153 883.474C443.531 919.742 446.181 960.151 446.891 1007.49L482.303 1043.56L524.377 1025.04C611.395 782.242 695.318 705.902 849.17 595.409L837.658 417L629.337 420.432Z" fill="black"/>
<path d="M1371.31 695.245L1377.23 676.772L1251.09 577.204L437 1439.54C438.361 1501.18 506.763 1568.34 552.098 1582.7L1371.31 695.245Z" fill="#D6B679"/>
<path fill-rule="evenodd" clip-rule="evenodd" d="M1253.56 611.004L1346.98 684.743L545.71 1552.77C530.622 1544.61 512.714 1530.54 496.897 1512.41C478.681 1491.54 466.3 1468.79 462.915 1448.51L1253.56 611.004ZM437 1439.54L1251.09 577.204L1377.23 676.772L1371.31 695.245L552.098 1582.7C506.763 1568.34 438.361 1501.18 437 1439.54Z" fill="black"/>
<path d="M1565.09 599.046C1524.16 518.948 1484.43 492.286 1419.66 420.432L1211.34 417L1199.83 595.409C1353.68 705.902 1437.6 782.242 1524.62 1025.04L1566.7 1043.56L1602.11 1007.49C1604.91 820.533 1637.97 741.665 1565.09 599.046Z" fill="#B40000"/>
<path fill-rule="evenodd" clip-rule="evenodd" d="M1451.23 490.26C1488.82 528.891 1514.83 555.624 1542.83 610.421C1577.34 677.959 1586.51 729.451 1586.98 786.845C1587.22 815.984 1585.21 846.611 1582.86 882.415L1582.81 883.218C1580.62 916.576 1578.2 953.927 1577.29 997.082L1560.96 1013.72L1544.49 1006.47C1501.63 889.04 1458.68 809.209 1406.74 744.901C1356.02 682.122 1297.67 635.339 1225.67 583.217L1234.76 442.389L1408.44 445.25C1424.39 462.666 1438.48 477.148 1451.23 490.26ZM1419.66 420.432C1437.25 439.938 1452.98 456.114 1467.4 470.933C1506.09 510.7 1535.27 540.692 1565.09 599.046C1619.51 705.553 1614.86 776.506 1607.85 883.474C1605.47 919.742 1602.82 960.151 1602.11 1007.49L1566.7 1043.56L1524.62 1025.04C1437.6 782.242 1353.68 705.902 1199.83 595.409L1211.34 417L1419.66 420.432Z" fill="black"/>
<path fill-rule="evenodd" clip-rule="evenodd" d="M256.552 694.419L271.887 681.581L340.137 763.101L447.392 743.168L451.047 762.832L332.302 784.899L256.552 694.419ZM200 900.831L212.439 885.169L312.478 964.626L452.656 911.157L459.783 929.843L308.961 987.374L200 900.831ZM499.837 1137.27L359.622 1232.47L220.465 1167.05L228.974 1148.95L357.817 1209.53L488.602 1120.73L499.837 1137.27Z" fill="black"/>
<path fill-rule="evenodd" clip-rule="evenodd" d="M1788.64 690.837L1773.29 678L1705.01 759.509L1597.69 739.579L1594.04 759.24L1712.85 781.305L1788.64 690.837ZM1845.22 897.22L1832.77 881.561L1732.68 961.008L1592.43 907.545L1585.29 926.229L1736.2 983.752L1845.22 897.22ZM1545.22 1133.63L1685.51 1228.82L1824.74 1163.4L1816.23 1145.31L1687.32 1205.87L1556.46 1117.09L1545.22 1133.63Z" fill="black"/>
<path d="M641 1696C757.678 1749.92 887.628 1780 1024.6 1780C1161.58 1780 1291.53 1749.92 1408.21 1696" stroke="black" stroke-width="20"/>
<path d="M631.954 389.378V346.374H686.223V389.378H631.954ZM686.223 292.151V333.286H631.954V292.151H686.223ZM681.545 279.063H634.293L570.667 253.821V521.663H580.024C606.223 521.663 631.954 507.64 631.954 501.096V402.466H686.223V452.015C686.223 457.157 684.82 460.429 678.27 460.429C669.381 460.429 641.311 458.559 641.311 458.559V464.168C659.556 467.908 665.638 474.452 670.785 482.866C675.931 491.747 677.334 505.303 677.802 524C741.428 518.858 750.317 497.356 750.317 458.091V302.435C760.142 300.565 766.224 296.358 769.031 292.619L709.615 247.277L681.545 279.063ZM863.534 457.624C850.903 457.624 848.096 455.287 848.096 447.34V421.631H962.717C955.699 436.589 948.213 448.743 943.067 452.95C939.325 456.222 934.178 457.157 928.564 457.157C922.482 457.624 910.786 457.624 900.026 457.624H863.534ZM786.341 230.45H794.762C820.493 230.45 849.967 219.699 849.967 215.024V206.61H902.365V255.691H854.646L786.341 230.45ZM895.348 310.381H848.096V268.779H902.365V284.205H915.933L895.348 310.381ZM680.609 150.985C678.738 174.357 674.527 206.143 669.849 229.982H624.936C655.814 227.645 674.059 176.694 595.93 150.985H680.609ZM968.331 421.631C973.945 421.164 977.687 418.827 979.091 414.152C959.909 397.325 929.032 373.953 929.032 373.953L901.897 408.543H848.096V371.616H952.424C958.506 371.616 963.652 369.278 964.588 364.137C947.278 348.244 918.272 326.274 918.272 326.274L893.008 358.527H848.096V323.47H958.038C964.588 323.47 969.266 321.132 970.67 315.991C958.506 304.772 940.26 290.749 929.968 282.335C946.342 279.998 962.716 274.389 963.184 272.519V216.426C973.009 214.557 979.091 210.35 981.898 206.61L924.354 164.074L897.687 193.522H849.967V158.464H972.073C979.091 158.464 984.237 156.127 985.641 150.985C964.588 131.353 928.564 101.904 928.564 101.904L897.219 145.376H849.967V98.6324C863.067 96.7626 866.342 92.0882 866.809 85.5441L784.937 79V232.787C766.224 215.492 737.218 191.652 737.218 191.652L709.147 229.982H683.416C703.065 211.752 723.183 190.25 736.282 174.357C747.042 174.357 752.189 170.15 753.592 164.541L695.112 150.985H763.885C770.434 150.985 775.113 148.648 776.516 143.506C757.803 125.276 725.522 98.6324 725.522 98.6324L696.984 137.897H689.03V97.23C700.258 94.8928 703.533 91.1533 704.001 85.0767L624.936 79V137.897H549.146L552.889 150.985H585.638C593.591 168.748 599.673 194.924 596.866 217.829C604.351 225.775 612.772 229.515 620.258 229.982H544L547.743 243.07H775.113C779.323 243.07 782.598 242.135 784.937 240.266V463.701C784.937 506.705 797.569 517.923 848.564 517.923H892.541C968.798 517.923 992.658 504.835 992.658 479.126C992.658 467.908 987.512 460.429 970.67 453.417L968.331 421.631Z" fill="#D6B679"/>
<path d="M1158.86 256.159V200.066H1208.92V256.159H1158.86ZM1208.92 132.755V186.978H1158.86V132.755H1208.92ZM1204.24 119.667H1160.73L1092.43 91.1533V523.065H1103.66C1133.6 523.065 1158.86 506.705 1158.86 498.291V269.247H1208.92V296.826H1219.68C1239.8 296.826 1270.21 285.607 1271.14 282.335V141.169C1279.57 139.767 1285.18 136.027 1287.52 132.288L1231.85 90.2185L1204.24 119.667ZM1367.99 256.159V200.066H1419.45V256.159H1367.99ZM1419.45 132.755V186.978H1367.99V132.755H1419.45ZM1445.18 85.5441L1414.77 119.667H1369.86L1304.83 94.4254V295.891H1313.72C1340.38 295.891 1367.99 281.868 1367.99 276.258V269.247H1419.45V439.394C1419.45 446.405 1417.11 450.145 1408.22 450.145C1394.65 450.145 1324.95 446.405 1324.95 446.405V452.015C1357.23 457.624 1369.39 465.103 1380.62 475.387C1390.91 484.735 1394.65 500.628 1396.99 522.13C1476.53 515.119 1487.75 490.812 1487.75 446.873V143.506C1497.11 141.169 1503.19 137.43 1506 133.223L1445.18 85.5441Z" fill="#D6B679"/>
<path fill-rule="evenodd" clip-rule="evenodd" d="M605.667 517.622C597.842 520.031 588.96 521.663 580.024 521.663H570.667V253.822L634.293 279.063H681.545L709.615 247.277L769.031 292.619C768.986 292.678 768.941 292.738 768.894 292.798C766.029 296.492 759.986 300.595 750.317 302.435V458.091C750.317 460.003 750.296 461.873 750.249 463.701C750.198 465.649 750.118 467.55 750.001 469.403C748.476 493.572 740.765 509.667 712.648 518.123C703.406 520.902 691.959 522.856 677.802 524C677.541 513.553 676.987 504.711 675.652 497.393C675.528 496.712 675.397 496.045 675.259 495.39C674.224 490.489 672.788 486.323 670.784 482.866C669.602 480.933 668.371 479.099 666.954 477.375C662.202 471.593 655.365 467.049 641.311 464.168V458.559C641.311 458.559 641.716 458.586 642.445 458.633C646.035 458.868 657.472 459.599 666.954 460.053C670.525 460.224 673.818 460.356 676.311 460.406C677.036 460.421 677.693 460.429 678.27 460.429C684.82 460.429 686.223 457.157 686.223 452.015V402.466H631.954V501.096C631.954 505.408 620.782 512.967 605.667 517.622ZM643.162 538.827C638.96 541.508 634.478 543.835 630.054 545.805C616.722 551.743 598.889 556.663 580.024 556.663H535.667V278.07H521.348L497.588 194.982H561.832C561.453 191.981 560.934 188.962 560.3 185.985H526.495L502.735 102.897H589.936V41.2069L716.899 50.9648L719.094 47.9452L723.354 51.4609L741.585 52.8621L740.597 65.6932L747.801 71.6394L739.351 81.8773C747.802 71.6394 747.802 71.6402 747.803 71.6408L747.805 71.6428L748.213 71.9804C748.47 72.193 748.843 72.5018 749.319 72.8982C749.509 73.0558 749.715 73.2274 749.937 73.4123V41.0909L904.195 53.4209L902.415 78.3276L921.924 51.2701L950.716 74.8066L928.564 101.904L897.219 145.376H849.967V98.6324C862.825 96.7971 866.217 92.2595 866.781 85.9038C866.791 85.7846 866.801 85.6647 866.809 85.5442L784.937 79.0001V232.787C783.482 231.442 781.964 230.057 780.403 228.647C778.684 227.095 776.913 225.513 775.113 223.919C771.584 220.794 767.946 217.624 764.385 214.553C764.271 214.455 764.157 214.357 764.044 214.259C761.573 212.13 759.142 210.051 756.813 208.07C756.248 207.59 755.688 207.115 755.136 206.646C755.065 206.586 754.994 206.525 754.923 206.465C753.181 204.988 751.51 203.577 749.937 202.254C748.388 200.95 746.934 199.73 745.603 198.617C740.515 194.362 737.218 191.652 737.218 191.652L709.147 229.982H683.416C684.486 228.99 685.557 227.988 686.628 226.977C689.287 224.469 691.948 221.91 694.591 219.322C698.382 215.61 702.137 211.838 705.802 208.07C706.926 206.915 708.042 205.76 709.147 204.608C709.331 204.416 709.514 204.225 709.698 204.034C709.83 203.895 709.963 203.756 710.096 203.617C713.606 199.942 717.01 196.297 720.255 192.741C722.349 190.446 724.378 188.189 726.327 185.985C726.743 185.515 727.155 185.047 727.563 184.582C730.714 180.994 733.641 177.562 736.282 174.357C742.697 174.357 747.117 172.862 749.937 170.466C750.693 169.824 751.334 169.117 751.868 168.357C752.684 167.196 753.249 165.91 753.592 164.541L695.112 150.985H763.885C766.224 150.985 768.325 150.687 770.123 150.07C773.359 148.958 775.614 146.812 776.516 143.506C772.734 139.822 768.397 135.793 763.885 131.71C763.532 131.392 763.179 131.072 762.824 130.753C759.33 127.604 755.749 124.436 752.255 121.382C752.062 121.214 751.87 121.045 751.678 120.878C751.095 120.369 750.514 119.863 749.937 119.362C748.616 118.213 747.313 117.085 746.038 115.985C741.511 112.082 737.337 108.537 733.953 105.683C728.835 101.367 725.522 98.6324 725.522 98.6324L696.983 137.897H689.03V97.2301C700.258 94.8929 703.533 91.1534 704.001 85.0768L624.936 79.0001V137.897H549.146L552.889 150.985H585.638C586.802 153.586 587.926 156.366 588.988 159.291C589.73 161.333 590.442 163.446 591.116 165.617C591.849 167.981 592.538 170.413 593.173 172.897C594.456 177.921 595.515 183.159 596.272 188.476C596.579 190.634 596.836 192.806 597.038 194.982C597.443 199.352 597.625 203.739 597.541 208.07C597.477 211.366 597.258 214.629 596.866 217.829C604.351 225.775 612.772 229.515 620.258 229.982H544L547.743 243.07H775.113C775.221 243.07 775.328 243.07 775.435 243.069C776.278 243.059 777.083 243.011 777.849 242.924C779.434 242.746 780.855 242.403 782.111 241.896C783.17 241.469 784.112 240.926 784.937 240.266V463.701C784.937 465.893 784.97 468.003 785.039 470.032C786.325 507.82 800.169 517.923 848.564 517.923H892.54C968.798 517.923 992.658 504.835 992.658 479.126C992.658 471.024 989.974 464.873 982.139 459.439C980.39 458.226 978.384 457.049 976.093 455.893C974.527 455.104 972.829 454.324 970.988 453.55C970.882 453.506 970.776 453.461 970.67 453.417L968.33 421.631C970.341 421.464 972.111 421.057 973.62 420.389C976.325 419.191 978.19 417.153 979.091 414.152C975.594 411.084 971.708 407.799 967.691 404.477C967.409 404.244 967.127 404.011 966.844 403.778C965.478 402.651 964.099 401.522 962.716 400.397C959.445 397.734 956.157 395.096 952.986 392.575C952.798 392.426 952.611 392.277 952.424 392.129C950.743 390.794 949.097 389.495 947.507 388.244C946.811 387.697 946.125 387.159 945.452 386.631C945.156 386.399 944.861 386.168 944.569 385.94C935.605 378.928 929.032 373.953 929.032 373.953L901.897 408.543H848.096V371.616H952.424C954.674 371.616 956.796 371.296 958.624 370.632C961.737 369.503 963.998 367.376 964.588 364.137C962.602 362.313 960.462 360.41 958.23 358.469C958.166 358.414 958.102 358.358 958.038 358.303C956.216 356.72 954.333 355.114 952.424 353.506C950.819 352.154 949.194 350.801 947.571 349.462C947.571 349.462 947.571 349.461 947.571 349.462C946.962 348.959 946.352 348.458 945.745 347.96C943.816 346.378 941.899 344.822 940.026 343.314C939.651 343.012 939.278 342.712 938.907 342.414C936.349 340.361 933.889 338.408 931.614 336.616C928.691 334.313 926.075 332.276 923.949 330.631C922.615 329.599 921.474 328.721 920.572 328.03C919.104 326.905 918.272 326.274 918.272 326.274L893.008 358.527H848.096V323.47H958.038C960.604 323.47 962.883 323.111 964.791 322.365C965.885 321.937 966.858 321.382 967.691 320.693C969.113 319.52 970.132 317.961 970.67 315.991C968.668 314.145 966.502 312.223 964.234 310.262C962.234 308.534 960.154 306.775 958.038 305.013C955.243 302.684 952.383 300.348 949.559 298.065C947.953 296.766 946.358 295.483 944.793 294.229C943.006 292.797 941.258 291.402 939.576 290.058C938.901 289.52 938.238 288.99 937.586 288.47C937.512 288.411 937.439 288.352 937.365 288.293C935.557 286.849 933.847 285.478 932.27 284.205C931.466 283.556 930.697 282.931 929.968 282.335C932.452 281.981 934.936 281.551 937.365 281.07C950.945 278.382 962.787 274.105 963.184 272.519V216.427C973.009 214.557 979.091 210.35 981.898 206.61L924.354 164.074L897.687 193.522H849.967V158.464H972.073C973.231 158.464 974.337 158.401 975.385 158.272C977.048 158.066 978.561 157.695 979.892 157.15C982.802 155.958 984.836 153.932 985.641 150.985C981.557 147.178 976.911 143.001 972.073 138.741C968.23 135.356 964.266 131.92 960.368 128.574C958.725 127.165 957.094 125.772 955.489 124.405C955.119 124.09 954.75 123.777 954.383 123.464C940.352 111.541 928.564 101.904 928.564 101.904C950.716 74.8066 950.717 74.8072 950.717 74.8078L950.72 74.8097L951.161 75.1713C951.443 75.402 951.853 75.7386 952.38 76.1715C953.433 77.0373 954.952 78.2892 956.838 79.8502C960.607 82.9699 965.854 87.3358 971.774 92.3292C983.48 102.204 998.309 114.943 1009.51 125.388L1024.97 139.807L1019.41 160.202C1016.83 169.624 1012.15 176.44 1006.6 181.347L1031.06 199.424L1009.89 227.622C1006.61 231.985 1002.65 235.778 998.184 238.995V276.831L997.138 281.015C996.299 284.365 995.059 287.243 993.725 289.644C993.951 289.851 994.176 290.057 994.398 290.262L1010.04 304.685L1004.43 325.207C1002.48 332.357 998.913 338.642 994.143 343.758L1002.48 351.411L999.022 370.403C998.261 374.585 996.952 378.413 995.229 381.875C997.136 383.485 998.997 385.077 1000.79 386.631H1017.8L1012.84 397.2L1019.08 402.675L1012.61 424.217C1011.47 428.013 1009.85 431.662 1007.76 435.059C1010.35 437.292 1012.81 439.772 1015.08 442.54C1024.77 454.391 1027.66 467.539 1027.66 479.126C1027.66 491.206 1024.75 504.324 1016.3 516.258C1008.06 527.908 996.616 535.469 984.708 540.452C962.307 549.827 931.195 552.923 892.54 552.923H848.564C823.731 552.923 795.236 551.007 774.834 533.499C771.578 530.705 768.743 527.716 766.274 524.579C765.401 525.631 764.487 526.67 763.533 527.695C743.937 548.736 714.207 556.172 680.621 558.886L643.739 561.867L643.162 538.827ZM902.365 206.61H849.967V215.024C849.967 215.439 849.735 215.902 849.294 216.4C846.384 219.692 834.373 224.556 819.937 227.612C818.4 227.937 816.836 228.242 815.252 228.522C808.566 229.705 801.534 230.45 794.762 230.45H786.341L854.645 255.691H902.365V206.61ZM848.096 268.779V310.381H895.347L915.932 284.205H902.365V268.779H848.096ZM848.096 421.631V447.34C848.096 452.514 849.286 455.31 853.602 456.631C855.916 457.34 859.127 457.624 863.534 457.624H900.028C910.788 457.624 922.483 457.624 928.564 457.157C930.784 457.157 932.931 457.01 934.947 456.631C935.233 456.577 935.517 456.519 935.799 456.455C936.566 456.282 937.313 456.071 938.035 455.819C939.893 455.169 941.589 454.242 943.067 452.95C946.056 450.506 949.834 445.382 953.851 438.586C956.684 433.791 959.637 428.165 962.515 422.059C962.582 421.917 962.649 421.774 962.716 421.631H848.096ZM595.93 150.985C607.685 154.854 617.259 159.293 624.936 164.053C625.794 164.585 626.629 165.121 627.44 165.66C630.976 168.013 634.07 170.435 636.753 172.897C638.922 174.887 640.823 176.902 642.474 178.929C644.384 181.275 645.96 183.635 647.227 185.985C648.861 189.017 649.983 192.033 650.651 194.982C651.689 199.57 651.629 203.997 650.687 208.07C650.115 210.542 649.219 212.884 648.047 215.053C646.118 218.624 643.441 221.727 640.234 224.17C638.502 225.49 636.616 226.616 634.609 227.521C631.615 228.87 628.353 229.724 624.936 229.982H669.849C670.611 226.1 671.36 222.007 672.089 217.773C672.634 214.608 673.168 211.363 673.687 208.07C674.731 201.446 675.715 194.624 676.611 187.845C676.693 187.225 676.774 186.605 676.855 185.985C677.428 181.573 677.964 177.188 678.453 172.897C678.547 172.078 678.638 171.262 678.728 170.45C679.489 163.59 680.127 157.008 680.609 150.985H595.93ZM683.123 62.6743C683.314 62.6039 683.42 62.5742 683.426 62.5769C683.431 62.5796 683.335 62.6148 683.123 62.6743ZM846.605 63.6814C846.61 63.6846 846.515 63.7145 846.304 63.7611C846.495 63.7015 846.601 63.6782 846.605 63.6814ZM686.223 292.151H631.954V333.286H686.223V292.151ZM631.954 389.378H686.223V346.374H631.954V389.378ZM1127.43 519.702C1120.19 521.762 1112.11 523.065 1103.66 523.065H1092.43V91.1534L1160.73 119.667H1204.24L1231.85 90.2186L1287.52 132.288C1287.18 132.833 1286.77 133.378 1286.29 133.916C1283.48 137.068 1278.34 139.971 1271.14 141.169V282.335C1271.04 282.693 1270.59 283.147 1269.83 283.671C1266.2 286.182 1255.64 290.305 1243.92 293.266C1235.76 295.327 1227.03 296.826 1219.68 296.826H1208.92V269.247H1158.86V498.291C1158.86 504.33 1145.85 514.463 1127.43 519.702ZM1193.86 331.826V498.291C1193.86 507.857 1190.41 515.303 1187.76 519.739C1184.95 524.422 1181.61 528.16 1178.66 530.986C1172.75 536.649 1165.61 541.32 1158.42 544.998C1143.94 552.4 1124.71 558.065 1103.66 558.065H1057.43V38.6155L1167.75 84.6671H1189.08L1227.83 43.3186L1269.83 75.0515V43.2959L1376.41 84.6671H1399.08L1440.91 37.7261L1553.11 125.68L1535.11 152.649C1531.64 157.862 1527.38 162.085 1522.75 165.508V446.873C1522.75 470.233 1520.28 500.319 1496.65 523.394C1474.63 544.889 1441.08 553.379 1400.07 556.995L1365.91 560.007L1362.2 525.916C1361.1 515.843 1359.88 509.308 1358.47 504.904C1357.7 502.511 1357.08 501.431 1356.86 501.088C1353.2 497.744 1350.39 495.719 1346.19 493.808C1341.37 491.618 1333.42 489.011 1318.95 486.498L1289.95 481.458V409.478L1326.82 411.456L1324.95 446.406V452.015C1357.23 457.624 1369.39 465.103 1380.62 475.387C1383.44 477.946 1385.76 480.996 1387.7 484.517C1392.86 493.858 1395.29 506.515 1396.99 522.13C1402.29 521.663 1407.28 521.12 1411.99 520.499C1419.19 519.549 1425.73 518.417 1431.65 517.102C1479.99 506.37 1487.75 483.409 1487.75 446.873V143.506C1495.86 141.482 1501.51 138.404 1504.7 134.882C1505.19 134.339 1505.62 133.785 1506 133.223L1445.18 85.5442L1414.77 119.667H1369.86L1304.83 94.4255V295.891H1313.72C1322.68 295.891 1331.74 294.308 1339.83 291.994C1340.77 291.725 1341.69 291.446 1342.61 291.159C1357.2 286.557 1367.99 279.764 1367.99 276.258V269.247H1419.45V439.394C1419.45 446.406 1417.11 450.145 1408.22 450.145C1407.32 450.145 1406.18 450.129 1404.82 450.098C1404.5 450.091 1404.16 450.082 1403.8 450.073C1403.74 450.072 1403.68 450.07 1403.62 450.068C1394.1 449.819 1376.24 449 1359.95 448.199C1344.08 447.42 1329.7 446.659 1325.91 446.457C1325.28 446.424 1324.95 446.406 1324.95 446.406C1326.82 411.456 1326.82 411.456 1326.82 411.456L1326.82 411.456L1326.83 411.456L1327.59 411.497C1328.1 411.524 1328.86 411.564 1329.82 411.615C1331.74 411.717 1334.5 411.862 1337.87 412.037C1344.59 412.386 1353.69 412.852 1363.2 413.317C1370.52 413.675 1377.84 414.02 1384.45 414.312V309.564C1384.06 309.846 1383.69 310.113 1383.33 310.364C1377.62 314.365 1370.88 317.789 1364.16 320.55C1350.76 326.057 1332.64 330.891 1313.72 330.891H1269.83V321.941C1267.63 322.727 1265.37 323.484 1263.09 324.2C1251.45 327.854 1234.91 331.826 1219.68 331.826H1193.86ZM1419.45 132.755H1367.99V186.978H1419.45V132.755ZM1356.77 500.96C1356.77 500.958 1356.78 500.974 1356.81 501.012C1356.78 500.98 1356.77 500.961 1356.77 500.96ZM1208.92 132.755H1158.86V186.978H1208.92V132.755ZM1208.92 200.066H1158.86V256.159H1208.92V200.066ZM1419.45 200.066H1367.99V256.159H1419.45V200.066Z" fill="black"/>
<path d="M609.024 1503.6C621.344 1521.68 634.026 1547.73 636.925 1571.6C678.233 1603.43 718.816 1523.13 612.285 1501.79L609.024 1503.6ZM521.336 1485.87C532.931 1501.43 546.338 1524.58 551.049 1546.28C597.067 1577.03 637.287 1490.94 523.872 1484.06L521.336 1485.87ZM488 1567.98C500.32 1582.45 514.089 1604.52 518.437 1624.77C563.006 1652.99 599.603 1569.43 490.536 1566.18L488 1567.98ZM613.735 1536.88C538.729 1687.72 538.729 1687.72 528.945 1702.18C524.235 1709.78 522.785 1709.78 516.626 1709.78H499.595V1716.29C507.204 1717.01 514.089 1718.82 519.524 1722.44C528.583 1728.59 530.032 1765.12 522.423 1803.83C526.409 1818.66 536.917 1823 546.338 1823C566.992 1823 581.848 1809.62 582.573 1789.72C583.66 1756.44 566.267 1745.59 565.543 1724.25C565.543 1714.48 568.441 1700.38 572.065 1687.72C577.5 1666.37 603.589 1583.54 618.808 1538.32L613.735 1536.88ZM662.652 1710.5V1661.31H761.211V1710.5H662.652ZM761.211 1605.24V1651.18H662.652V1605.24H761.211ZM757.587 1595.11H738.745V1493.47C747.441 1492.02 749.615 1488.77 750.34 1484.06L688.379 1479V1595.11H665.188L612.285 1574.13V1822.28H620.257C641.998 1822.28 662.652 1810.7 662.652 1804.91V1720.63H761.211V1761.87C761.211 1766.21 759.761 1768.74 754.326 1768.74C745.992 1768.74 717.004 1766.93 717.004 1766.93V1771.64C733.672 1774.53 739.832 1780.32 744.905 1787.91C749.615 1795.51 751.065 1807.08 752.152 1823C805.055 1818.66 811.939 1800.21 811.939 1767.29V1613.2C819.549 1611.75 824.259 1608.5 826.433 1605.6L780.053 1569.79L757.587 1595.11ZM773.168 1492.02C769.545 1514.45 759.399 1554.24 749.253 1581.01L752.877 1584.26C775.704 1567.62 798.532 1545.56 814.113 1529.28C823.172 1530.36 826.796 1527.83 828.245 1524.22L773.168 1492.02Z" fill="#D6B679"/>
<path d="M919.557 1705.44V1517.34H944.921C942.022 1545.92 935.138 1588.6 929.34 1612.84C944.921 1634.54 950.719 1662.39 950.719 1686.27C950.719 1695.67 948.182 1701.1 943.834 1703.63C941.66 1705.08 939.486 1705.44 936.225 1705.44H919.557ZM1193.49 1562.2C1198.56 1562.2 1202.55 1560.39 1203.64 1556.41C1187.33 1540.85 1159.07 1517.34 1159.07 1517.34L1134.43 1552.07H1101.09V1497.45C1111.24 1495.64 1113.41 1492.02 1114.14 1486.96L1049.64 1482.26V1552.07H985.866C990.939 1544.83 995.65 1537.96 999.273 1531.81C1007.97 1531.81 1013.04 1530.36 1015.94 1526.39L967.024 1482.26L941.298 1507.21H924.63L870.64 1487.32V1823H879.698C904.7 1823 919.557 1811.06 919.557 1807.45V1710.14C926.804 1712.67 931.514 1716.29 933.688 1720.63C936.949 1727.5 938.761 1748.12 938.761 1762.59C984.055 1762.59 998.549 1737.63 998.549 1702.18C998.549 1671.8 979.706 1633.46 938.761 1612.11C952.893 1597.28 968.474 1577.03 981.156 1558.94L982.243 1562.2H1030.8C1031.88 1658.78 1022.83 1752.83 944.559 1819.74L946.733 1823C1043.48 1783.93 1073.55 1711.95 1083.7 1628.39H1128.63C1123.92 1709.06 1117.4 1754.27 1105.8 1763.68C1102.18 1766.57 1098.92 1767.29 1092.76 1767.29C1084.79 1767.29 1062.32 1766.21 1047.1 1765.12V1769.1C1063.41 1772.72 1074.64 1778.87 1081.16 1786.47C1086.96 1793.34 1088.41 1804.91 1088.41 1820.47C1112.69 1820.47 1128.63 1815.4 1142.4 1804.55C1164.5 1786.47 1173.56 1741.97 1178.64 1637.07C1186.97 1635.99 1191.68 1633.46 1194.58 1630.2L1151.1 1592.94L1125.01 1618.26H1084.79C1086.6 1599.82 1087.69 1581.37 1088.05 1562.2H1193.49Z" fill="#D6B679"/>
<path d="M1389.16 1656.25V1617.9H1447.14C1431.92 1630.56 1415.25 1643.58 1397.13 1656.25H1389.16ZM1457.28 1707.97V1743.06H1359.09V1711.95C1362.35 1710.5 1365.24 1709.42 1368.14 1707.97H1457.28ZM1359.09 1789V1753.19H1457.28V1789H1359.09ZM1451.85 1558.94V1514.09H1482.28V1558.94H1451.85ZM1301.83 1514.09H1330.82V1558.94H1301.83V1514.09ZM1406.19 1514.09V1558.94H1376.12V1514.09H1406.19ZM1496.42 1656.25H1467.43C1490.98 1641.41 1511.27 1625.86 1527.58 1610.67C1535.91 1612.84 1539.9 1611.03 1542.43 1607.41L1500.4 1581.01C1515.26 1579.2 1532.65 1573.77 1533.01 1571.6V1522.41C1540.62 1520.6 1545.33 1517.34 1547.51 1514.45L1500.76 1479.72L1478.66 1503.96H1305.82L1252.19 1483.7V1590.77H1259.08C1279.01 1590.77 1301.83 1580.28 1301.83 1575.94V1569.07H1482.28V1581.73H1485.18C1477.21 1590.41 1467.79 1599.45 1458.01 1608.5C1442.06 1595.11 1420.32 1578.47 1420.32 1578.47L1397.49 1607.77H1389.16V1586.43C1397.86 1584.99 1400.03 1581.73 1400.76 1577.39L1338.43 1572.32V1607.77H1257.63L1260.53 1617.9H1338.43V1656.25H1227.91L1230.81 1666.37H1382.28C1369.59 1674.69 1356.55 1682.65 1342.78 1690.61L1305.1 1676.5V1711.23C1277.56 1725.33 1248.93 1737.63 1219.94 1748.12L1222.12 1753.19C1250.38 1747.76 1278.28 1740.17 1305.1 1731.48V1822.64H1312.7C1335.17 1822.64 1359.09 1811.06 1359.09 1806V1799.13H1457.28V1821.19H1466.7C1484.46 1821.19 1511.63 1812.15 1512 1809.62V1716.65C1519.61 1714.84 1524.32 1711.59 1526.49 1708.7L1477.21 1671.8L1453.66 1697.84H1390.97C1412.35 1688.08 1432.64 1677.23 1451.12 1666.37H1551.85C1556.93 1666.37 1560.91 1664.56 1562 1660.59C1546.06 1646.84 1519.61 1626.95 1519.61 1626.95L1496.42 1656.25Z" fill="#D6B679"/>
<path fill-rule="evenodd" clip-rule="evenodd" d="M598.37 1469.48C579.975 1457.59 555.499 1450.92 525.989 1449.13L513.632 1448.38L471.909 1478.13L493.275 1506.79C498.89 1514.32 504.511 1523.33 508.959 1532.38C503.375 1531.76 497.579 1531.37 491.581 1531.19L479.807 1530.84L436.623 1561.63L461.351 1590.67C471.726 1602.86 481.559 1619.74 484.217 1632.12L487.301 1646.49L499.716 1654.35C503.873 1656.98 508.171 1659.16 512.552 1660.88C508.989 1667.73 506.757 1671.8 504.995 1674.78H464.595V1748.12L492.183 1750.74C492.208 1751.22 492.229 1751.71 492.248 1752.22C492.676 1763.83 491.455 1779.91 488.08 1797.08L486.511 1805.06L488.622 1812.91C492.514 1827.39 500.579 1839.67 512.602 1847.88C524.111 1855.74 536.478 1858 546.338 1858C557.029 1858 567.605 1855.91 577.285 1851.59V1857.28H620.257C636.906 1857.28 652.469 1852.96 664.207 1847.57C670.047 1844.89 676.188 1841.38 681.508 1836.94C684.134 1834.75 687.474 1831.58 690.427 1827.35C693.083 1823.54 697.652 1815.7 697.652 1804.91V1803.8L711.017 1806.12C712.919 1806.45 714.245 1806.78 715.122 1807.04C715.229 1807.49 715.351 1808.06 715.48 1808.75C716.169 1812.45 716.701 1817.6 717.233 1825.38L719.651 1860.78L755.014 1857.88C783.421 1855.55 810.173 1848.99 827.911 1829.26C830.943 1825.89 833.494 1822.37 835.64 1818.76V1858H879.698C896.433 1858 910.824 1854.3 922.088 1849.12L933.438 1866.11L959.838 1855.45C993.308 1841.94 1020.44 1824.57 1042.22 1803.92C1047.73 1805.35 1051 1806.91 1052.78 1807.97C1053.15 1810.52 1053.41 1814.46 1053.41 1820.47V1855.47H1088.41C1118.33 1855.47 1142.58 1848.97 1164.07 1832.04L1164.32 1831.84L1164.57 1831.64C1180.06 1818.96 1189.54 1801.29 1195.92 1780.88L1201.06 1792.87L1228.72 1787.56C1242.68 1784.88 1256.5 1781.71 1270.1 1778.18V1857.64H1312.7C1329.37 1857.64 1345.42 1853.49 1357.36 1848.7C1363.33 1846.3 1369.55 1843.24 1374.94 1839.5C1376.8 1838.21 1379.16 1836.43 1381.57 1834.13H1422.28V1856.19H1466.7C1480.27 1856.19 1495.08 1852.97 1505.45 1850.02C1510.88 1848.47 1516.26 1846.67 1520.78 1844.78C1522.89 1843.9 1525.82 1842.58 1528.74 1840.82C1530.1 1840 1532.64 1838.38 1535.31 1835.93L1535.4 1835.85C1536.91 1834.46 1544.84 1827.21 1546.64 1814.57L1547 1812.11V1737.62C1549.74 1735.3 1552.26 1732.67 1554.47 1729.72L1575.53 1701.69L1570.41 1697.85C1580.66 1693.89 1591.39 1685.8 1595.76 1669.81L1601.58 1648.5L1584.85 1634.08C1581.29 1631.01 1577.31 1627.71 1573.26 1624.42L1592.23 1597.36L1566.65 1581.29C1567 1580.05 1567.3 1578.74 1567.53 1577.37L1568.01 1574.5V1543.38C1570.75 1541.05 1573.27 1538.42 1575.49 1535.47L1596.63 1507.34L1496.23 1432.75L1463.21 1468.96H1312.21L1217.19 1433.07V1521.29C1210.71 1515.45 1203.86 1509.49 1198.05 1504.5C1193.39 1500.5 1189.26 1497 1186.29 1494.49C1184.81 1493.24 1183.61 1492.24 1182.78 1491.54C1182.36 1491.19 1182.03 1490.92 1181.81 1490.73L1181.46 1490.44L1181.46 1490.44L1181.45 1490.44C1181.45 1490.44 1181.45 1490.44 1159.07 1517.34L1181.45 1490.44L1152.45 1466.31L1154.1 1454.78L1014.64 1444.61V1478.07L966.155 1434.33L928.145 1471.21L835.64 1437.12V1488L789.32 1460.92L790.657 1452.24L771.839 1450.7L746.758 1436.04L744.747 1448.49L653.378 1441.02V1477.64C642.898 1473.34 631.406 1469.92 619.16 1467.47L606.554 1464.94L598.37 1469.48ZM589.343 1507.32C584.5 1501.81 577.277 1496.72 567.19 1492.67C565.155 1491.86 563.003 1491.08 560.73 1490.36C550.838 1487.2 538.661 1484.96 523.872 1484.06L521.336 1485.87C522.076 1486.87 522.824 1487.89 523.577 1488.94C524.394 1490.09 525.216 1491.26 526.041 1492.47C531.888 1501.04 537.834 1511.14 542.631 1521.72C545.737 1528.57 548.361 1535.62 550.165 1542.57C550.486 1543.81 550.781 1545.05 551.049 1546.28C556.468 1549.9 561.807 1551.9 566.824 1552.6C567.331 1552.67 567.835 1552.73 568.336 1552.78C571.479 1553.06 574.483 1552.82 577.285 1552.16C577.311 1552.16 577.337 1552.15 577.363 1552.14C583.152 1550.76 588.076 1547.54 591.587 1543.22C594.415 1539.74 596.328 1535.54 597.038 1531C597.066 1530.82 597.092 1530.64 597.116 1530.47C597.195 1529.88 597.254 1529.29 597.292 1528.7C597.604 1523.91 596.589 1518.83 593.933 1513.88C592.742 1511.65 591.221 1509.46 589.343 1507.32ZM613.235 1537.88C608.494 1547.41 604.055 1556.34 599.896 1564.7C598.291 1567.93 596.729 1571.07 595.206 1574.13C594.051 1576.45 592.92 1578.73 591.811 1580.96C591.133 1582.32 590.463 1583.67 589.801 1585C585.246 1594.15 581.087 1602.51 577.285 1610.14C565.001 1634.79 556.436 1651.89 550.222 1664.12C547.091 1670.28 544.556 1675.21 542.443 1679.24C542.297 1679.52 542.152 1679.79 542.01 1680.06C539.414 1684.99 537.47 1688.53 535.825 1691.37C535.345 1692.2 534.89 1692.97 534.451 1693.7C532.541 1696.87 530.948 1699.22 528.945 1702.18C524.235 1709.78 522.785 1709.78 516.625 1709.78H499.595V1716.29C505.909 1716.89 511.724 1718.24 516.625 1720.75C517.631 1721.26 518.599 1721.82 519.524 1722.44C523.318 1725.02 525.777 1732.92 526.795 1744.08C528.208 1759.57 526.845 1781.33 522.423 1803.83C526.409 1818.66 536.917 1823 546.338 1823C559.988 1823 571.106 1817.15 577.285 1807.45C580.456 1802.47 582.327 1796.47 582.573 1789.72C583.006 1776.45 580.501 1766.74 577.285 1758.52C575.881 1754.93 574.342 1751.62 572.852 1748.41C569.201 1740.56 565.852 1733.36 565.542 1724.25C565.542 1719.17 566.327 1712.92 567.589 1706.3C568.754 1700.2 570.326 1693.79 572.065 1687.72C573.113 1683.6 574.928 1677.2 577.285 1669.23C579.707 1661.03 582.7 1651.18 586.02 1640.43C589.467 1629.27 593.266 1617.15 597.144 1604.93C599.205 1598.43 601.289 1591.91 603.353 1585.48C604.268 1582.63 605.18 1579.81 606.084 1577.01C606.271 1576.43 606.457 1575.85 606.644 1575.28C606.768 1574.9 606.891 1574.51 607.014 1574.13C607.29 1573.28 607.565 1572.43 607.839 1571.59C611.651 1559.84 615.288 1548.8 618.469 1539.33C618.478 1539.3 618.488 1539.27 618.498 1539.24C618.527 1539.16 618.557 1539.07 618.586 1538.98C618.66 1538.76 618.734 1538.54 618.808 1538.32L613.735 1536.88C613.71 1536.93 613.685 1536.98 613.66 1537.03C613.518 1537.31 613.376 1537.6 613.235 1537.88ZM629.732 1543.44C629.799 1543.62 629.865 1543.8 629.931 1543.98C630.074 1544.37 630.215 1544.75 630.354 1545.14C633.253 1553.19 635.473 1561.42 636.636 1569.43C636.675 1569.7 636.713 1569.97 636.75 1570.24C636.812 1570.7 636.87 1571.15 636.925 1571.6C638.145 1572.54 639.365 1573.38 640.581 1574.13C641.496 1574.7 642.409 1575.21 643.318 1575.67C644.651 1576.34 645.975 1576.91 647.285 1577.37C649.358 1578.1 651.396 1578.57 653.378 1578.8C656.65 1579.18 659.771 1578.92 662.652 1578.12C663.52 1577.87 664.366 1577.58 665.188 1577.25C668.858 1575.74 672.044 1573.32 674.525 1570.24C674.919 1569.75 675.296 1569.25 675.654 1568.72C677.395 1566.18 678.694 1563.27 679.448 1560.11C682.183 1548.66 677.778 1533.91 661.391 1521.52C660.128 1520.57 658.793 1519.63 657.386 1518.7C656.111 1517.87 654.775 1517.04 653.378 1516.24C646.625 1512.33 638.425 1508.79 628.593 1505.83C628.435 1505.78 628.276 1505.73 628.116 1505.69C626.469 1505.2 624.776 1504.72 623.036 1504.26C619.632 1503.37 616.051 1502.54 612.285 1501.79L609.024 1503.6C609.766 1504.69 610.509 1505.8 611.252 1506.95C613.775 1510.84 616.287 1515.04 618.703 1519.46C619.913 1521.67 621.099 1523.94 622.249 1526.26C623.505 1528.78 624.719 1531.36 625.876 1533.98C627.011 1536.55 628.092 1539.16 629.105 1541.79C629.311 1542.32 629.514 1542.86 629.714 1543.39C629.72 1543.41 629.726 1543.43 629.732 1543.44ZM665.188 1595.11L612.285 1574.13V1822.28H620.257C630.093 1822.28 639.706 1819.91 647.285 1816.78C656.459 1812.99 662.652 1808.08 662.652 1804.91V1720.63H761.21V1761.87C761.21 1766.21 759.761 1768.74 754.326 1768.74C753.671 1768.74 752.889 1768.73 752.004 1768.71C742.736 1768.49 722.14 1767.25 717.812 1766.98C717.289 1766.95 717.004 1766.93 717.004 1766.93V1771.64C733.672 1774.53 739.832 1780.32 744.905 1787.91C747.437 1792 749.027 1797.23 750.125 1803.67C750.594 1806.42 750.973 1809.4 751.298 1812.59C751.626 1815.83 751.899 1819.3 752.152 1823C767.028 1821.78 778.265 1819.44 786.734 1815.98C808.382 1807.14 811.939 1790.96 811.939 1767.29V1613.2C819.347 1611.79 824.008 1608.67 826.255 1605.83C826.316 1605.76 826.376 1605.68 826.433 1605.6L780.053 1569.79L757.587 1595.11H738.745V1493.47C744.658 1492.49 747.556 1490.67 749.033 1488.12C749.728 1486.93 750.108 1485.57 750.34 1484.06L688.378 1479V1595.11H665.188ZM662.652 1605.24V1651.18H761.21V1605.24H662.652ZM662.652 1710.5H761.21V1661.31H662.652V1710.5ZM733.227 1458.9C733.23 1458.9 733.158 1458.92 733.002 1458.94C733.146 1458.91 733.224 1458.9 733.227 1458.9ZM767.721 1518.65C766.998 1521.72 766.231 1524.86 765.427 1528.04C765.411 1528.1 765.394 1528.17 765.378 1528.23C764.744 1530.74 764.087 1533.27 763.41 1535.81C762.047 1540.94 760.602 1546.11 759.103 1551.21C758.22 1554.21 757.318 1557.19 756.402 1560.11C755.319 1563.57 754.217 1566.96 753.104 1570.24C751.97 1573.58 750.825 1576.81 749.679 1579.87C749.537 1580.25 749.395 1580.63 749.253 1581.01L752.876 1584.26C753.44 1583.85 754.003 1583.44 754.566 1583.02C755.574 1582.27 756.581 1581.52 757.587 1580.75C758.797 1579.83 760.005 1578.9 761.21 1577.96C764.404 1575.45 767.581 1572.87 770.72 1570.24C771.732 1569.39 772.741 1568.54 773.745 1567.68C774.412 1567.11 775.077 1566.54 775.74 1565.97C783.095 1559.61 790.177 1553.06 796.714 1546.75C796.806 1546.67 796.898 1546.58 796.99 1546.49C798.447 1545.08 799.877 1543.68 801.276 1542.31C801.341 1542.24 801.406 1542.18 801.472 1542.11C806.049 1537.6 810.298 1533.27 814.113 1529.28C821.255 1530.14 825.019 1528.74 827.002 1526.34C827.534 1525.7 827.938 1524.98 828.245 1524.22L773.168 1492.02C773.091 1492.5 773.012 1492.98 772.929 1493.47C771.732 1500.58 769.933 1509.27 767.721 1518.65ZM818.364 1494.54C818.502 1494.54 818.574 1494.55 818.576 1494.55C818.578 1494.56 818.51 1494.55 818.364 1494.54ZM829.841 1563.26C829.699 1563.4 829.557 1563.55 829.415 1563.69L835.64 1568.49V1561.55C833.694 1562.26 831.755 1562.83 829.841 1563.26ZM870.64 1823H879.698C888.557 1823 896.143 1821.5 902.245 1819.4C903.433 1819 904.565 1818.57 905.64 1818.12C914.617 1814.38 919.557 1809.53 919.557 1807.45V1710.14C926.804 1712.67 931.514 1716.29 933.688 1720.63C934.668 1722.7 935.516 1726 936.225 1730.01C936.778 1733.14 937.246 1736.7 937.623 1740.43C938.37 1747.81 938.761 1755.87 938.761 1762.59C943.163 1762.59 947.274 1762.36 951.11 1761.9C952.284 1761.76 953.433 1761.6 954.557 1761.41C961.992 1760.21 968.312 1758.11 973.642 1755.22C991.925 1745.32 998.548 1726.15 998.548 1702.18C998.548 1690.36 995.694 1677.33 989.793 1664.56C987.691 1660.01 985.203 1655.5 982.319 1651.09C978.157 1644.72 973.171 1638.56 967.336 1632.8C963.455 1628.98 959.197 1625.33 954.557 1621.93C952.338 1620.3 950.032 1618.73 947.637 1617.22C944.803 1615.43 941.845 1613.72 938.761 1612.11C943.51 1607.13 948.423 1601.53 953.334 1595.61C953.742 1595.12 954.149 1594.63 954.557 1594.13C954.9 1593.71 955.244 1593.29 955.587 1592.87C957.145 1590.96 958.701 1589.03 960.249 1587.07C960.808 1586.36 961.366 1585.65 961.922 1584.94C965.741 1580.06 969.499 1575.08 973.117 1570.15C974.708 1567.98 976.272 1565.82 977.802 1563.68C978.939 1562.09 980.059 1560.51 981.156 1558.94L982.243 1562.2H1030.8C1030.89 1570.51 1030.91 1578.81 1030.82 1587.07C1030.81 1587.54 1030.8 1588.02 1030.8 1588.5C1030.76 1591.4 1030.71 1594.3 1030.64 1597.2C1030.14 1618.59 1028.77 1639.72 1025.87 1660.29C1023.86 1674.55 1021.11 1688.54 1017.41 1702.18C1013.37 1717.07 1008.19 1731.54 1001.58 1745.46C993.519 1762.45 983.331 1778.62 970.496 1793.76C965.535 1799.61 960.179 1805.31 954.398 1810.85C951.443 1813.67 948.378 1816.46 945.197 1819.2C944.985 1819.38 944.772 1819.56 944.559 1819.74L946.733 1823C946.884 1822.94 947.035 1822.88 947.185 1822.82C948.825 1822.15 950.445 1821.48 952.046 1820.79C976.084 1810.52 995.845 1798.14 1012.1 1784C1017.59 1779.23 1022.67 1774.26 1027.39 1769.1C1028.59 1767.79 1029.77 1766.46 1030.92 1765.12C1030.94 1765.1 1030.96 1765.08 1030.98 1765.06C1037.7 1757.26 1043.63 1749.06 1048.86 1740.49C1050.85 1737.23 1052.74 1733.91 1054.54 1730.55C1067.13 1706.95 1074.99 1680.91 1079.98 1653.26C1081.45 1645.11 1082.68 1636.81 1083.7 1628.39H1128.63C1128.12 1637.1 1127.59 1645.39 1127.04 1653.26C1126.8 1656.72 1126.55 1660.1 1126.29 1663.39C1121.94 1720.07 1116.05 1753.23 1106.87 1762.7C1106.52 1763.06 1106.16 1763.38 1105.8 1763.68C1102.18 1766.57 1098.92 1767.29 1092.76 1767.29C1090.34 1767.29 1086.59 1767.19 1082.1 1767.02C1079.49 1766.93 1076.64 1766.8 1073.66 1766.66C1065.2 1766.27 1055.73 1765.73 1047.97 1765.19C1047.68 1765.17 1047.39 1765.14 1047.1 1765.12V1769.1C1054.92 1770.84 1061.58 1773.15 1067.1 1775.93C1073.1 1778.95 1077.77 1782.51 1081.16 1786.47C1084.39 1790.3 1086.27 1795.59 1087.31 1802.21C1088.13 1807.47 1088.41 1813.58 1088.41 1820.47C1102.45 1820.47 1113.7 1818.77 1123.36 1815.25C1130.4 1812.68 1136.59 1809.13 1142.4 1804.55C1163.61 1787.2 1172.81 1745.54 1178 1649.55C1178.22 1645.49 1178.43 1641.33 1178.64 1637.07C1181.31 1636.73 1183.61 1636.23 1185.6 1635.6C1189.81 1634.29 1192.61 1632.41 1194.58 1630.2L1151.1 1592.94L1125.01 1618.26H1084.79C1085.6 1610 1086.27 1601.73 1086.79 1593.39C1086.92 1591.29 1087.04 1589.18 1087.15 1587.07C1087.22 1585.8 1087.29 1584.53 1087.35 1583.26C1087.68 1576.32 1087.91 1569.31 1088.05 1562.2H1193.49C1195.54 1562.2 1197.41 1561.9 1198.98 1561.29C1201.31 1560.38 1202.99 1558.78 1203.64 1556.41C1200.59 1553.5 1197.12 1550.31 1193.49 1547.05C1190.96 1544.77 1188.36 1542.46 1185.77 1540.19C1183.23 1537.95 1180.7 1535.75 1178.26 1533.65C1175.6 1531.35 1173.06 1529.17 1170.74 1527.2C1163.91 1521.37 1159.07 1517.34 1159.07 1517.34L1134.43 1552.07H1101.09V1497.45C1111.24 1495.64 1113.41 1492.02 1114.14 1486.96L1049.64 1482.26V1552.07H985.866C986.687 1550.9 987.499 1549.74 988.298 1548.59C992.436 1542.63 996.236 1536.97 999.273 1531.81C1003.06 1531.81 1006.16 1531.54 1008.69 1530.9C1011.08 1530.3 1012.96 1529.37 1014.44 1528.05C1014.51 1527.99 1014.57 1527.93 1014.64 1527.87C1014.87 1527.65 1015.08 1527.43 1015.29 1527.2C1015.52 1526.94 1015.74 1526.67 1015.94 1526.39L967.024 1482.26L941.297 1507.21H924.629L870.64 1487.32V1823ZM919.557 1705.44H936.225C939.486 1705.44 941.66 1705.08 943.834 1703.63C947.971 1701.22 950.468 1696.19 950.701 1687.61C950.713 1687.17 950.719 1686.72 950.719 1686.27C950.719 1679.39 950.238 1672.18 949.18 1664.89C946.99 1649.78 942.328 1634.29 934.348 1620.58C932.805 1617.93 931.138 1615.34 929.34 1612.84C929.933 1610.36 930.537 1607.69 931.147 1604.86C932.318 1599.43 933.511 1593.42 934.688 1587.07C936.465 1577.48 938.205 1567.12 939.775 1556.84C939.808 1556.62 939.84 1556.41 939.873 1556.2C940.069 1554.91 940.262 1553.63 940.452 1552.34C940.957 1548.93 941.442 1545.55 941.9 1542.21C943.121 1533.34 944.159 1524.86 944.921 1517.34H919.557V1705.44ZM936.344 1670.44C936.342 1670.44 936.306 1670.44 936.232 1670.44C936.307 1670.44 936.346 1670.44 936.344 1670.44ZM1095.6 1462.85C1095.6 1462.85 1095.5 1462.88 1095.28 1462.93C1095.48 1462.87 1095.59 1462.85 1095.6 1462.85ZM1207.5 1595.19C1210.47 1594.35 1213.56 1593.2 1216.6 1591.64L1217.19 1593.69V1603.49L1207.5 1595.19ZM1209.44 1701.37C1209.01 1706.13 1208.55 1710.74 1208.07 1715.2C1219.94 1710.9 1231.74 1706.29 1243.4 1701.37H1209.44ZM1305.1 1822.64H1312.7C1316.5 1822.64 1320.33 1822.31 1324.08 1821.74C1329.74 1820.87 1335.22 1819.46 1340.1 1817.79C1351.13 1814 1359.08 1808.92 1359.08 1806V1799.13H1457.28V1821.19H1466.7C1474.44 1821.19 1483.96 1819.47 1492.28 1817.33C1503.05 1814.55 1511.79 1811.04 1512 1809.62V1716.65C1519.61 1714.84 1524.32 1711.59 1526.49 1708.7L1477.21 1671.8L1453.66 1697.84H1390.97C1394.04 1696.44 1397.09 1695.01 1400.12 1693.57C1401.73 1692.8 1403.33 1692.03 1404.93 1691.24C1408.77 1689.37 1412.56 1687.47 1416.31 1685.54C1417.18 1685.1 1418.04 1684.65 1418.91 1684.2C1423.1 1682.03 1427.22 1679.83 1431.29 1677.61C1434.11 1676.07 1436.9 1674.52 1439.65 1672.97C1443.55 1670.78 1447.37 1668.58 1451.12 1666.37H1551.85C1554.22 1666.37 1556.35 1665.98 1558.06 1665.16C1560.01 1664.21 1561.42 1662.71 1562 1660.59C1558.92 1657.93 1555.45 1655.05 1551.85 1652.12C1549.18 1649.95 1546.44 1647.75 1543.74 1645.61C1543.26 1645.23 1542.79 1644.86 1542.31 1644.48C1539.92 1642.59 1537.58 1640.76 1535.36 1639.03C1532.15 1636.53 1529.21 1634.26 1526.75 1632.38C1526.29 1632.03 1525.85 1631.69 1525.43 1631.37C1524.42 1630.59 1523.5 1629.9 1522.72 1629.31C1520.76 1627.81 1519.61 1626.95 1519.61 1626.95L1496.41 1656.24H1467.43C1472.88 1652.81 1478.16 1649.33 1483.26 1645.83C1486.36 1643.7 1489.4 1641.57 1492.36 1639.42C1493.73 1638.43 1495.08 1637.44 1496.41 1636.45C1498.69 1634.76 1500.92 1633.07 1503.11 1631.37C1504.87 1630.01 1506.59 1628.66 1508.29 1627.3C1510.26 1625.72 1512.18 1624.14 1514.07 1622.57C1518.5 1618.87 1522.71 1615.17 1526.68 1611.5C1526.98 1611.22 1527.28 1610.94 1527.58 1610.67C1527.97 1610.77 1528.36 1610.86 1528.73 1610.95C1529.64 1611.15 1530.49 1611.31 1531.28 1611.42C1537.16 1612.21 1540.31 1610.45 1542.43 1607.41C1542.43 1607.41 1542.43 1607.41 1542.43 1607.41L1500.4 1581.01C1503.45 1580.64 1506.6 1580.11 1509.69 1579.5C1510.83 1579.27 1511.97 1579.03 1513.09 1578.78C1513.27 1578.74 1513.45 1578.7 1513.63 1578.66C1514.87 1578.37 1516.1 1578.08 1517.28 1577.77C1521.37 1576.73 1525.04 1575.6 1527.81 1574.56C1530.92 1573.38 1532.89 1572.32 1533.01 1571.6V1522.41C1540.62 1520.6 1545.33 1517.34 1547.51 1514.45L1500.76 1479.72L1478.66 1503.96H1305.82L1252.19 1483.7V1590.77H1259.08C1259.56 1590.77 1260.04 1590.77 1260.53 1590.75C1262.61 1590.7 1264.73 1590.54 1266.83 1590.29C1274.06 1589.43 1281.24 1587.5 1287.19 1585.27C1289.22 1584.5 1291.11 1583.71 1292.81 1582.9C1298.31 1580.31 1301.83 1577.65 1301.83 1575.94V1569.07H1482.28V1581.73H1485.18C1484.82 1582.12 1484.46 1582.51 1484.1 1582.9C1483.5 1583.55 1482.9 1584.19 1482.28 1584.84C1479.44 1587.84 1476.44 1590.88 1473.33 1593.94C1471 1596.23 1468.62 1598.53 1466.18 1600.84C1465.05 1601.92 1463.91 1602.99 1462.76 1604.07C1461.19 1605.54 1459.6 1607.02 1458.01 1608.5C1456.28 1607.05 1454.49 1605.57 1452.67 1604.07C1451.07 1602.76 1449.45 1601.44 1447.82 1600.12C1447.64 1599.98 1447.46 1599.83 1447.28 1599.68C1447.23 1599.64 1447.18 1599.61 1447.14 1599.57C1444.77 1597.65 1442.4 1595.76 1440.11 1593.94C1438.95 1593.01 1437.8 1592.1 1436.68 1591.22C1435.73 1590.47 1434.81 1589.75 1433.92 1589.04C1430.93 1586.7 1428.24 1584.6 1426.06 1582.9C1425.28 1582.3 1424.57 1581.75 1423.94 1581.26C1421.67 1579.5 1420.32 1578.47 1420.32 1578.47L1397.49 1607.77H1389.16V1586.43C1393.14 1585.77 1395.76 1584.73 1397.49 1583.37C1397.69 1583.22 1397.88 1583.06 1398.05 1582.9C1399.7 1581.38 1400.4 1579.52 1400.75 1577.39L1338.43 1572.32V1607.77H1257.63L1260.53 1617.9H1338.43V1656.24H1227.91L1230.81 1666.37H1382.28C1380.82 1667.33 1379.36 1668.28 1377.9 1669.22C1377.67 1669.37 1377.45 1669.51 1377.22 1669.66C1375.96 1670.47 1374.7 1671.28 1373.43 1672.08C1372.96 1672.38 1372.49 1672.68 1372.02 1672.97C1370.74 1673.79 1369.44 1674.6 1368.14 1675.41C1364.04 1677.96 1359.9 1680.5 1355.69 1683.02C1355.18 1683.32 1354.67 1683.63 1354.16 1683.93C1352.19 1685.1 1350.21 1686.28 1348.21 1687.45C1346.41 1688.5 1344.6 1689.55 1342.78 1690.61L1305.1 1676.5V1711.23C1304.1 1711.74 1303.1 1712.25 1302.1 1712.75C1301.22 1713.2 1300.34 1713.64 1299.46 1714.08C1284.12 1721.76 1268.45 1728.89 1252.6 1735.46C1242.16 1739.79 1231.64 1743.87 1221.07 1747.72C1220.69 1747.85 1220.32 1747.99 1219.94 1748.12L1222.12 1753.19C1238.27 1750.09 1254.31 1746.27 1270.1 1741.96C1281.92 1738.72 1293.61 1735.2 1305.1 1731.48V1822.64ZM1359.08 1743.06H1457.28V1707.97H1368.14C1368.09 1708 1368.03 1708.03 1367.97 1708.06C1366.19 1708.94 1364.41 1709.68 1362.54 1710.47L1362.54 1710.47C1361.43 1710.94 1360.28 1711.42 1359.08 1711.95V1743.06ZM1389.16 1617.9V1656.24H1397.13C1397.5 1655.99 1397.86 1655.74 1398.22 1655.48C1399.45 1654.62 1400.66 1653.76 1401.87 1652.9C1409.57 1647.42 1417 1641.88 1424.16 1636.35C1426.31 1634.69 1428.43 1633.03 1430.53 1631.37C1430.57 1631.34 1430.61 1631.31 1430.65 1631.28C1436.32 1626.79 1441.82 1622.33 1447.14 1617.9H1389.16ZM1359.08 1789H1457.28V1753.19H1359.08V1789ZM1482.28 1558.94V1514.09H1451.85V1558.94H1482.28ZM1406.19 1514.09H1376.12V1558.94H1406.19V1514.09ZM1330.82 1514.09H1301.83V1558.94H1330.82V1514.09ZM1052.31 1805.61C1052.31 1805.61 1052.32 1805.64 1052.34 1805.71C1052.32 1805.65 1052.31 1805.62 1052.31 1805.61ZM1093.83 1732.27C1093.83 1732.27 1093.82 1732.27 1093.78 1732.27C1093.82 1732.27 1093.83 1732.27 1093.83 1732.27ZM995.13 1611.16C995.32 1607.01 995.469 1602.81 995.582 1598.58C993.723 1601.04 991.833 1603.51 989.919 1605.96C991.711 1607.66 993.448 1609.4 995.13 1611.16ZM716.564 1807.56C716.563 1807.56 716.548 1807.55 716.519 1807.53C716.55 1807.55 716.564 1807.56 716.564 1807.56ZM490.94 1740.94C490.94 1740.94 490.948 1740.96 490.962 1741.01C490.947 1740.96 490.939 1740.94 490.94 1740.94ZM554.636 1623.46C560.423 1617.84 563.35 1609.54 561.679 1600.99C560.639 1595.66 557.813 1590.24 552.782 1585.3C552.295 1584.82 551.786 1584.35 551.257 1583.88C547.177 1580.27 541.846 1576.96 535.086 1574.21C534.389 1573.92 533.676 1573.64 532.948 1573.37C530.368 1572.41 527.595 1571.52 524.619 1570.72C515.318 1568.21 504.044 1566.58 490.536 1566.18L488 1567.98C488.794 1568.92 489.593 1569.88 490.396 1570.87C495.049 1576.63 499.805 1583.35 504.101 1590.56C506.58 1594.73 508.905 1599.05 510.967 1603.44C514.288 1610.51 516.929 1617.75 518.437 1624.77C521.87 1626.95 525.255 1628.46 528.53 1629.39C539.074 1632.4 548.475 1629.45 554.636 1623.46Z" fill="black"/>
</svg>
